<?xml version="1.0" encoding="iso-8859-1"?>
<!-- Generator: Adobe Illustrator 18.0.0, SVG Export Plug-In . SVG Version: 6.00 Build 0)  -->
<!DOCTYPE svg PUBLIC "-//W3C//DTD SVG 1.1//EN" "http://www.w3.org/Graphics/SVG/1.1/DTD/svg11.dtd">
<svg version="1.1" id="Capa_1" xmlns="http://www.w3.org/2000/svg" xmlns:xlink="http://www.w3.org/1999/xlink" x="0px" y="0px"
	 viewBox="0 0 264 264" style="enable-background:new 0 0 264 264;" xml:space="preserve">
<g>
	<path d="M246.997,33H17.926C8.225,33,0,40.892,0,50.593v163.071C0,223.385,8.061,231,17.926,231h229.071
		c9.721,0,17.003-7.615,17.003-17.336V50.593C264,40.728,256.718,33,246.997,33z M60.226,43.025c3.554,0,6.444,2.891,6.444,6.444
		s-2.891,6.444-6.444,6.444s-6.444-2.891-6.444-6.444S56.672,43.025,60.226,43.025z M41.726,43.025c3.554,0,6.444,2.891,6.444,6.444
		s-2.891,6.444-6.444,6.444s-6.444-2.891-6.444-6.444S38.172,43.025,41.726,43.025z M23.226,43.025c3.554,0,6.444,2.891,6.444,6.444
		s-2.891,6.444-6.444,6.444s-6.444-2.891-6.444-6.444S19.672,43.025,23.226,43.025z M248,214.5c0,0.276,0.109,0.5-0.167,0.5h-0.5
		h-230.5H16v-0.5V67v-0.5c0-0.276,0.557-0.5,0.833-0.5h231c0.276,0,0.167,0.224,0.167,0.5V214.5z M241.889,56h-70
		c-3.554,0-6.444-2.91-6.444-6.487c0-3.577,2.891-6.487,6.444-6.487l70,0.022c3.554,0,6.444,2.9,6.444,6.466
		C248.333,53.09,245.442,56,241.889,56z"/>
	<g>
		<path d="M68.25,143.632c-4.051-0.855-8.032,1.739-8.886,5.792c-1.064,5.049-1.604,10.247-1.604,15.449c0,4.143,3.357,7.5,7.5,7.5
			c4.143,0,7.5-3.357,7.5-7.5c0-4.165,0.431-8.322,1.281-12.355C74.896,148.464,72.303,144.486,68.25,143.632z"/>
		<path d="M193.944,122.847c-5.497-8.045-12.406-14.85-20.535-20.224c-3.452-2.284-8.106-1.334-10.393,2.121
			c-2.284,3.455-1.335,8.107,2.121,10.393c6.5,4.297,12.025,9.738,16.422,16.173c1.452,2.126,3.805,3.27,6.199,3.27
			c1.457,0,2.931-0.424,4.225-1.309C195.403,130.934,196.281,126.267,193.944,122.847z"/>
		<path d="M101.61,104.765c-2.287-3.456-6.942-4.401-10.394-2.114c-8.125,5.378-15.029,12.188-20.522,20.238
			c-2.335,3.422-1.453,8.088,1.968,10.423c1.294,0.883,2.765,1.306,4.221,1.306c2.396,0,4.75-1.146,6.202-3.273
			c4.394-6.439,9.915-11.885,16.411-16.186C102.95,112.871,103.896,108.218,101.61,104.765z"/>
		<path d="M146.716,91.537C142.01,90.617,137.17,90,132.335,90c-0.006,0-0.011,0-0.017,0c-4.848,0-9.7,0.619-14.423,1.547
			c-4.064,0.799-6.712,4.814-5.914,8.88c0.702,3.576,3.839,6.094,7.352,6.094c0.479,0,0.965-0.178,1.453-0.273
			c3.772-0.74,7.652-1.247,11.533-1.247c0.005,0,0.01,0,0.014,0c3.873,0,7.743,0.523,11.504,1.258c4.069,0.803,8.005-1.855,8.8-5.92
			C153.432,96.273,150.781,92.332,146.716,91.537z"/>
		<path d="M205.302,149.424c-0.855-4.053-4.834-6.641-8.886-5.792c-4.053,0.854-6.646,4.832-5.792,8.886
			c0.851,4.033,1.281,8.19,1.281,12.355c0,4.143,3.357,7.5,7.5,7.5c4.143,0,7.5-3.357,7.5-7.5
			C206.905,159.671,206.366,154.473,205.302,149.424z"/>
		<path d="M132.333,162.273c-1.02,0-2.014,0.113-2.974,0.318l-19.579-22.042c-2.751-3.096-7.491-3.378-10.588-0.627
			c-3.097,2.751-3.378,7.491-0.627,10.588l19.998,22.514c-0.279,1.11-0.444,2.267-0.444,3.463c0,7.838,6.376,14.214,14.214,14.214
			c7.838,0,14.214-6.376,14.214-14.214C146.547,168.648,140.171,162.273,132.333,162.273z"/>
	</g>
</g>
<g>
</g>
<g>
</g>
<g>
</g>
<g>
</g>
<g>
</g>
<g>
</g>
<g>
</g>
<g>
</g>
<g>
</g>
<g>
</g>
<g>
</g>
<g>
</g>
<g>
</g>
<g>
</g>
<g>
</g>
</svg>
